<svg xmlns="http://www.w3.org/2000/svg" viewBox="0 0 128 128" width="128" height="128">
  <!-- Shield outline -->
  <path d="M64 8 C30 8, 12 20, 12 48 C12 82, 40 112, 64 122 C88 112, 116 82, 116 48 C116 20, 98 8, 64 8 Z" fill="white" stroke="#C92A2A" stroke-width="5"/>

  <!-- Left half: noise/chaos (scattered lines) -->
  <g stroke="#C92A2A" stroke-width="1.8" stroke-linecap="round" fill="none" clip-path="url(#leftClip)">
    <line x1="28" y1="32" x2="35" y2="28"/>
    <line x1="22" y1="40" x2="30" y2="44"/>
    <line x1="32" y1="36" x2="26" y2="42"/>
    <line x1="38" y1="30" x2="42" y2="24"/>
    <line x1="24" y1="50" x2="32" y2="46"/>
    <line x1="36" y1="52" x2="28" y2="56"/>
    <line x1="40" y1="40" x2="34" y2="36"/>
    <line x1="30" y1="58" x2="38" y2="62"/>
    <line x1="42" y1="48" x2="36" y2="54"/>
    <line x1="26" y1="64" x2="34" y2="60"/>
    <line x1="38" y1="68" x2="30" y2="72"/>
    <line x1="44" y1="56" x2="38" y2="50"/>
    <line x1="32" y1="74" x2="40" y2="70"/>
    <line x1="28" y1="78" x2="36" y2="82"/>
    <line x1="42" y1="76" x2="34" y2="80"/>
    <line x1="38" y1="86" x2="44" y2="82"/>
    <line x1="46" y1="44" x2="50" y2="38"/>
    <line x1="48" y1="58" x2="52" y2="52"/>
    <line x1="50" y1="66" x2="46" y2="72"/>
    <line x1="44" y1="90" x2="50" y2="86"/>
    <line x1="48" y1="78" x2="54" y2="74"/>
    <line x1="52" y1="42" x2="56" y2="36"/>
    <line x1="54" y1="62" x2="58" y2="56"/>
    <line x1="40" y1="34" x2="46" y2="30"/>
    <line x1="34" y1="44" x2="28" y2="48"/>
    <line x1="46" y1="64" x2="40" y2="68"/>
    <line x1="50" y1="48" x2="44" y2="52"/>
  </g>

  <!-- Right half: clean horizontal lines (order/signal) -->
  <g stroke="#C92A2A" stroke-width="2.5" stroke-linecap="round" fill="none" clip-path="url(#rightClip)">
    <line x1="68" y1="30" x2="98" y2="30"/>
    <line x1="68" y1="37" x2="96" y2="37"/>
    <line x1="68" y1="44" x2="94" y2="44"/>
    <line x1="68" y1="51" x2="96" y2="51"/>
    <line x1="68" y1="58" x2="98" y2="58"/>
    <line x1="68" y1="65" x2="96" y2="65"/>
    <line x1="68" y1="72" x2="94" y2="72"/>
    <line x1="68" y1="79" x2="92" y2="79"/>
    <line x1="68" y1="86" x2="88" y2="86"/>
    <line x1="68" y1="93" x2="84" y2="93"/>
    <line x1="68" y1="100" x2="78" y2="100"/>
  </g>

  <!-- Clip paths for left/right halves -->
  <defs>
    <clipPath id="leftClip">
      <path d="M64 8 C30 8, 12 20, 12 48 C12 82, 40 112, 64 122 L64 8 Z"/>
    </clipPath>
    <clipPath id="rightClip">
      <path d="M64 8 L64 122 C88 112, 116 82, 116 48 C116 20, 98 8, 64 8 Z"/>
    </clipPath>
  </defs>
</svg>
